<svg width="48" height="48" viewBox="0 0 48 48" fill="none" xmlns="http://www.w3.org/2000/svg">
<rect width="48" height="48" rx="4" fill="#212529"/>
<path d="M34.3208 9.47374C34.3208 9.47374 37.0503 11.6825 38.6426 13.1767C38.5451 13.534 38.1551 13.6964 37.7002 13.6964H8.71488L8.45493 12.7869H31.9161L34.3208 9.47374ZM19.7956 8.01205C29.674 7.65474 25.7421 15.3855 21.5828 12.5595C21.4203 10.9354 20.543 9.21389 19.6006 8.17446L19.7956 8.01205ZM30.5514 24.1557L33.1509 21.8494L37.1478 25.6498C36.8553 25.9422 36.5304 26.0396 35.783 26.0721C32.3061 27.0466 26.5545 27.8911 22.7526 28.2484L22.5901 28.021C25.2872 27.0466 29.0566 25.3575 30.9413 24.1557H30.5514ZM26.782 27.0141C26.717 27.5013 26.392 27.7612 25.7421 27.8586V33.8029C25.7421 36.9536 24.9298 38.5777 19.5031 39C19.3732 37.5383 19.1782 36.5314 18.5283 35.8168C17.9109 35.1671 17.196 34.6799 15.1813 34.3226V33.9328C15.1813 33.9328 19.4057 34.1926 20.153 34.1926C20.5755 34.1926 20.7379 34.0627 20.7379 33.6729V26.5593L26.782 27.0141ZM27.9193 15.9702L29.9665 13.6964L34.3532 16.9446C34.1583 17.2045 33.7683 17.4968 33.086 17.6592V21.8819C33.0535 22.1093 30.5839 22.8239 29.0891 22.8239H28.2442V15.9702H27.9193ZM18.5283 22.1093C18.5283 22.4991 16.3836 23.506 14.4665 23.506H13.8166V14.1187L18.7883 15.9702H30.0314V16.8797H18.5283V22.1093ZM30.4864 20.5826V21.4921H16.4486V20.5826H30.4864ZM32.696 24.1557V25.0652H11.1845L10.892 24.1557H32.696ZM34.6457 26.8192C34.6457 26.8192 37.3753 28.963 39 30.3922C38.935 30.7495 38.5451 30.9119 38.0577 30.9119H8.25996L8 30.0024H32.2411L34.6457 26.8192Z" fill="white"/>
</svg>
